<?xml version="1.0" encoding="utf-8"?>
<!-- Generator: Adobe Illustrator 19.0.0, SVG Export Plug-In . SVG Version: 6.00 Build 0)  -->
<svg version="1.1" id="レイヤー_1" xmlns="http://www.w3.org/2000/svg" xmlns:xlink="http://www.w3.org/1999/xlink" x="0px"
	 y="0px" viewBox="0 0 272.8 100.4" style="enable-background:new 0 0 272.8 100.4;" xml:space="preserve">
<style type="text/css">
	.st0{fill:#008AC8;}
	.st1{fill:#747477;}
</style>
<g>
	<path class="st0" d="M204.3,4.3C182.8,1.6,171.8,0,136.4,0S90,1.6,68.5,4.3C46.9,6.9,0,8,0,8v1.4c0,0,46.9,1,68.5,3.7
		c21.5,2.6,32.5,4.3,67.9,4.3s46.4-1.6,67.9-4.3c21.5-2.6,68.5-3.7,68.5-3.7V8C272.8,8,225.8,6.9,204.3,4.3z"/>
	<path class="st1" d="M8.1,30.5h11c0,0-0.3,5.5,6.6,12.4c6.9,6.9,11,10.1,11,17.5c0,7.3-4.9,14.3-19.8,14.3h-12v-7.6h12.4
		c0,0,7.5-0.6,7.5-6.6c0-6-5.6-10.3-5.6-10.3s-4.4-4.4-7-7.5C9.5,39.5,7.1,34.7,8.1,30.5z"/>
	<path class="st1" d="M73.7,30.5h11v44.2H60.5c0,0-14,0.8-14.8-10.8V30.5h11.3v32.2c0,0,0.1,3.9,4.3,4.4h12.3V30.5z"/>
	<path class="st1" d="M110.8,74.8H99.3V30.5h44.1c0,0,5,0.4,7.9,3.3c3,3,3.1,6.9,3.1,6.9v34.1h-11.9V42.1c0,0-0.4-3.4-4.2-3.4
		c-3.8,0-6.8,0-6.8,0v36.1h-9.8V38.7h-10.9V74.8z"/>
	<rect x="169.1" y="30.5" class="st1" width="10.5" height="44.2"/>
	<path class="st1" d="M190,30.5v7.6h4.3v24.2c0,0-0.8,11.8,15,12.4h11.2v-7.6h-9.8c0,0-5.5,0.5-5.5-5.2V38.2h16.9v-7.6H190z"/>
	<path class="st1" d="M227.5,74.8l15.4-43.6c0,0,0-0.6,0.8-0.6s6.7,0,6.7,0s5.7,0,7.3,4l14.5,40.2h-10.7l-12.2-36.6L238,74.8H227.5z
		"/>
	<path class="st1" d="M48.3,96.3h-1.2v-9.7h1.2v1.5c0,0,0.5-1.8,2.6-1.8s3.3,1.1,3.3,3.4c0,2.3,0,6.5,0,6.5H53v-6.7
		c0,0-0.2-2.1-2.1-2.1c-1.9,0-2.6,2.1-2.6,2.7S48.3,96.3,48.3,96.3z"/>
	<path class="st1" d="M60.2,86.4c-4.2,0-4,5.5-4,5.5s0,4.7,4.2,4.7c0,0,1.7,0.1,2.8-0.7v-1.1c0,0-1.3,0.7-2.8,0.7
		c-1.4,0-2.8-1.5-2.8-3.6h6.3C63.9,91.9,64.4,86.4,60.2,86.4z M57.6,90.7c0,0,0.3-3,2.6-3c2.3,0,2.3,3,2.3,3H57.6z"/>
	<polygon class="st1" points="64.5,86.6 67.4,96.3 68.9,96.3 71.4,88.3 73.7,96.3 75.3,96.3 78.3,86.6 76.9,86.6 74.5,94.7 
		72.3,86.6 70.6,86.6 68.2,94.7 65.9,86.6 	"/>
	<path class="st1" d="M90.6,86.6v1c-0.7-1.3-2.7-1.2-2.7-1.2c-3.6,0-3.9,3.2-3.9,5.5c0,2.4,1.4,4.4,3.8,4.4c2.4,0,2.8-1.7,2.8-1.7
		v1.7c0,2.1-1.8,3-3,3c-1.3,0-2.9-0.7-2.9-0.7v1.2c1.3,0.6,2.9,0.5,2.9,0.5c4,0,4.2-3.7,4.2-3.7v-10H90.6z M87.9,95.2
		c-1.4,0-2.5-1.4-2.5-3.8c0-2.4,0.8-3.8,2.6-3.8c1.4,0,2.7,0.7,2.7,3.6C90.6,94.1,89.2,95.2,87.9,95.2z"/>
	<rect x="94.4" y="82.1" class="st1" width="1.3" height="14.2"/>
	<path class="st1" d="M101.4,86.4c-1.3,0-2.6,0.6-2.6,0.6v1.3c0,0,0.6-0.7,2.6-0.7c2,0,2,1.5,2,1.5v1.2h-1.7c-2.8,0-4.1,1.6-4.1,3.3
		c0,1.6,0.9,3,3.1,3c2.2,0,2.8-1.7,2.8-1.7v1.3h1.2c0,0,0-5.1,0-7.1C104.7,87.1,102.7,86.4,101.4,86.4z M103.3,93.4c0,0-0.4,2-2.5,2
		c0,0-1.8,0.1-1.8-1.5c0-1.6,0.9-2.4,3.2-2.4l1,0V93.4z"/>
	<path class="st1" d="M111.8,88v-1.4c0,0-1.6-0.2-2.4-0.2c-0.8,0-2.8,0.3-2.8,2.6c0,2.2,2.5,2.9,2.5,2.9s1.8,0.6,1.8,1.8
		c0,1.2-1,1.7-1.9,1.7c-0.9,0-2.6-0.5-2.6-0.5v1.4c0,0,1.6,0.4,2.6,0.4c0.9,0,3.2-0.2,3.2-2.9c0-2-2.4-3-2.4-3s-2-0.6-2-1.8
		c0-1.1,1.1-1.3,1.7-1.3C110,87.6,111.8,88,111.8,88z"/>
	<path class="st1" d="M118.7,88v-1.4c0,0-1.6-0.2-2.4-0.2c-0.8,0-2.8,0.3-2.8,2.6c0,2.2,2.5,2.9,2.5,2.9s1.8,0.6,1.8,1.8
		c0,1.2-1,1.7-1.9,1.7c-0.9,0-2.6-0.5-2.6-0.5v1.4c0,0,1.6,0.4,2.6,0.4c0.9,0,3.2-0.2,3.2-2.9c0-2-2.4-3-2.4-3s-2-0.6-2-1.8
		c0-1.1,1.1-1.3,1.7-1.3S118.7,88,118.7,88z"/>
	<path class="st1" d="M223.7,88v-1.4c0,0-1.6-0.2-2.4-0.2c-0.8,0-2.8,0.3-2.8,2.6c0,2.2,2.5,2.9,2.5,2.9s1.8,0.6,1.8,1.8
		c0,1.2-1,1.7-1.9,1.7c-0.9,0-2.6-0.5-2.6-0.5v1.4c0,0,1.6,0.4,2.6,0.4c0.9,0,3.2-0.2,3.2-2.9c0-2-2.4-3-2.4-3s-2-0.6-2-1.8
		c0-1.1,1.1-1.3,1.7-1.3C221.9,87.6,223.7,88,223.7,88z"/>
	<path class="st1" d="M134,93.8c1.4-1.7,1.4-4.8,1.4-4.8l-1.2,0c0,2.7-0.9,4.1-0.9,4.1l-3.1-3.8c1.6-0.6,2.9-1.8,2.9-3.7
		c0-1.9-1.8-2.7-3-2.7c-1.2,0-3.4,0.7-3.4,2.7c0,2,1.5,3.4,1.5,3.4s-2.8,1.2-2.8,3.7c0,2.5,1.6,3.9,4.1,3.9c2.5,0,3.8-1.7,3.8-1.7
		l1.2,1.4h1.8L134,93.8z M128.1,85.8c0-1.7,1.6-1.8,1.8-1.8c0.3,0,1.7,0,1.7,1.8c0,1.8-2.3,2.6-2.3,2.6S128.1,87.5,128.1,85.8z
		 M129.4,95.5c-1.9,0-2.7-1.7-2.7-2.6c0-0.9,0.8-2.4,2.1-3h0.3l3.4,4.2C132.5,94,131.3,95.5,129.4,95.5z"/>
	<path class="st1" d="M146.9,82.1v1.2c0,0-0.5-0.2-1.1-0.2s-1.2,0.3-1.2,1.5c0,1.2,0,2.1,0,2.1h2v1.2h-2v8.5h-1.2v-8.5h-1.8v-1.2
		h1.9v-1.8c0,0-0.2-3,2.3-3C145.6,81.9,146.3,81.8,146.9,82.1z"/>
	<rect x="148.4" y="82.4" class="st1" width="1.4" height="1.9"/>
	<rect x="148.4" y="86.6" class="st1" width="1.4" height="9.7"/>
	<path class="st1" d="M156.3,86.4c-1.7,0-2.8,1.6-2.8,1.6v-6h-1.3v14.2h1.3v-1.4c0,0,0.8,1.7,2.8,1.7c2,0,3.7-1.7,3.7-5.5
		C160.1,87.4,158,86.4,156.3,86.4z M156.2,95.4c-1.3,0-2.7-1.1-2.7-4c0-2.8,1.2-3.8,2.5-3.8c1.1,0,2.6,0.4,2.6,3.8
		C158.6,94.7,157.5,95.4,156.2,95.4z"/>
	<path class="st1" d="M165.6,95.5c-2.8,0-2.9-3.6-2.9-3.6h6.3c0-5.1-2.8-5.5-3.7-5.5s-3.9,0.6-3.9,5.2s3.1,5.1,4.1,5.1
		c1.1,0,2.8-0.4,2.8-0.4v-1.5C168.4,94.7,168,95.5,165.6,95.5z M165.4,87.6c2.5,0,2.3,3.2,2.3,3.2h-4.9
		C162.8,90.8,162.9,87.6,165.4,87.6z"/>
	<path class="st1" d="M174.4,86.4c-1.6,0-2.3,1.9-2.3,1.9v-1.7h-1.3v9.7h1.3v-5.7c0-2.1,1.6-3,2.3-3c0.6,0,0.9,0.1,0.9,0.1v-1.2
		C175,86.3,174.4,86.4,174.4,86.4z"/>
	<path class="st1" d="M185.4,86.4c-1.6,0-4.3,1-4.3,5c0,3.9,2.4,5.3,4.4,5.3c2,0,4.1-1.5,4.1-5.3C189.6,87.4,186.8,86.4,185.4,86.4z
		 M185.5,95.4c-1.9,0-3-1.5-3-3.9c0-2.5,1.2-3.8,2.9-3.8c1.5,0,2.8,1.1,2.8,3.6S187.3,95.4,185.5,95.4z"/>
	<path class="st1" d="M195.4,86.4c-2.1,0-2.7,1.9-2.7,1.9v-1.7h-1.3l0,13.8h1.4V95c0.4,1.3,1.9,1.6,2.7,1.6s3.8-0.1,3.8-5.4
		C199.2,86,195.4,86.4,195.4,86.4z M195.5,95.5c-1.5,0-2.7-1-2.7-4.1c0-3.1,1.4-3.8,2.6-3.8c1.1,0,2.5,1,2.5,3.7
		C197.9,94,197,95.5,195.5,95.5z"/>
	<path class="st1" d="M202.1,84.3l1.2-0.5v2.8h2v1.2h-2v6.4c0,0-0.1,0.7,0.7,1.2c0.3,0.2,0.9,0.3,1.7-0.2v1c0,0-0.3,0.4-1.5,0.4
		c-1.2,0-2-1-2-2c0-0.6,0-6.8,0-6.8h-1.7v-1.2h1.7V84.3z"/>
	<rect x="207.2" y="86.6" class="st1" width="1.3" height="9.7"/>
	<rect x="207.2" y="82.4" class="st1" width="1.3" height="1.9"/>
	<path class="st1" d="M217.2,86.8c0,0-0.9-0.4-2.2-0.4c-1.3,0-4.4,0.7-4.4,5.3c0,4.5,3.6,5,4.6,5c1,0,2.1-0.4,2.1-0.4v-1.4
		c0,0-0.7,0.5-2.1,0.5c-1.4,0-3.2-1-3.2-3.8c0-2.8,1.4-4,3.1-4c1.7,0,2.2,0.4,2.2,0.4V86.8z"/>
</g>
</svg>
